# xmcd
#
# Track frame offsets: 
#        150
#        24006
#        40428
#        56584
#        76021
#        86859
#        103121
#        123170
#        147721
#        166647
#        191736
#        226369
#        238699
#        252948
#        266668
#        279997
#        298111
#
# Disc length: 4118 seconds
#
# Revision: 0
# Processed by: cddbd v1.5.2PL0 Copyright (c) Steve Scherf et al.
# Submitted via: ExactAudioCopy v1.0b1
#
DISCID=ec101411
DTITLE=Various Artist - Walkin' Blues [CD1)
DYEAR=2009
DGENRE=Blues
TTITLE0=Low Down Dirty Shame - Carey Bell
TTITLE1=Scared of That Child - Gary Smith
TTITLE2=Seven Nights to Rock - Mark Hummel
TTITLE3=Forty Days and Forty Nights - Johnny Dyer
TTITLE4=Minding My Own Business - Fillmore Slim
TTITLE5=West Winds Are Blowing - RJ Mischo and Steve Freund
TTITLE6=Hey Little Brother - Fillmore Slim and Frank Stickums
TTITLE7=Nailed to the Bone - Big Walther Shufflesworth
TTITLE8=Solid Sender - Paris Slim and Johnny Ace
TTITLE9=City Livin' - Mark Hummel
TTITLE10=Nosey Woman - Fillmore Slim
TTITLE11=Trouble No More - Johnny Dyer
TTITLE12=Money Back Guarantee - RJ Mischo
TTITLE13=Let's Talk About Love - Paris Slim
TTITLE14=Upside Your Head - Dona Mcgee
TTITLE15=Bloodstains on the Wall - Lazy Lester
TTITLE16=RJ, Get up! Milk That Cow - RJ Mischo, W Shufflesworth 
EXTD=
EXTT0=
EXTT1=
EXTT2=
EXTT3=
EXTT4=
EXTT5=
EXTT6=
EXTT7=
EXTT8=
EXTT9=
EXTT10=
EXTT11=
EXTT12=
EXTT13=
EXTT14=
EXTT15=
EXTT16=
PLAYORDER=
